<svg width="452" height="319" viewBox="0 0 452 319" fill="none" xmlns="http://www.w3.org/2000/svg">
<g id="checklist 1 1">
<g id="man">
<path id="Vector" d="M46.3141 62.6714L58.7616 63.0513L59.3016 48.2139L46.8541 47.8341L46.3141 62.6714Z" fill="#6C63FF"/>
<path id="Vector_2" d="M103.275 99.4814C103.275 99.4814 120.468 91.7539 120.228 98.3483C119.988 104.943 102.915 109.373 102.915 109.373L103.275 99.4814Z" fill="#FFB9B9"/>
<path id="Vector_3" d="M94.1226 155.316C94.1226 155.316 102.354 173.722 105.43 187.02C108.506 200.317 113.181 218.614 107.366 231.64C101.552 244.666 85.027 282.947 84.877 287.068C84.727 291.19 86.3553 295.366 82.7988 295.257C79.2424 295.148 59.8621 289.606 59.063 287.106C58.2639 284.606 65.6168 278.228 65.6168 278.228L83.5706 225.137L64.3512 190.717L50.9029 242.295L48.5629 306.59C48.5629 306.59 35.3463 302.886 33.4481 306.129C33.4481 306.129 27.4944 298.52 26.7253 295.196C25.9562 291.872 29.1553 228.428 29.1553 228.428C29.1553 228.428 16.6505 156.253 26.4307 156.551C36.2108 156.85 74.3932 134.909 94.1226 155.316Z" fill="#2F2E41"/>
<path id="Vector_4" d="M38.9026 33.9754C38.9026 33.9754 29.5016 47.7171 25.8252 50.9057C22.1488 54.0944 32.578 61.0144 32.578 61.0144L51.1892 63.2328C51.1892 63.2328 50.8701 47.544 51.8192 45.9226C52.7683 44.3011 38.9026 33.9754 38.9026 33.9754Z" fill="#FFB9B9"/>
<path id="Vector_5" d="M55.1656 51.8012C55.1656 51.8012 51.3692 58.287 47.8128 58.1785C44.2563 58.0699 25.8252 50.9057 25.0261 48.4057C24.227 45.9056 19.0314 66.3774 19.0314 66.3774L64.433 139.557L75.3723 132.463L69.8195 89.3829L65.3248 66.1398L55.1656 51.8012Z" fill="#6C63FF"/>
<path id="Vector_6" d="M23.7419 117.684C25.556 121.156 26.6969 124.781 26.5616 128.498C26.5556 128.663 26.5496 128.828 26.5347 128.992C26.1502 136.622 23.1672 145.46 22.1146 151.881C21.3506 156.487 21.5933 159.845 24.5025 160.619C31.5553 162.484 23.4934 163.889 50.7856 172.149C78.0778 180.408 82.7933 173.125 82.8533 171.477C82.9133 169.828 78.9178 157.328 79.8369 156.531C80.756 155.734 92.8135 166.83 96.4299 165.289C100.046 163.749 96.7899 155.398 96.7899 155.398C96.7899 155.398 88.5289 137.816 88.6789 133.695C88.8288 129.573 76.1823 110.207 76.1823 110.207L67.3731 58.7754C67.3731 58.7754 64.0566 52.0725 59.6411 51.1126C55.2256 50.1526 51.5792 52.5169 51.5792 52.5169L59.0411 67.5985L66.9722 94.2473L65.7231 104.112C65.7231 104.112 56.5729 86.5031 50.5892 79.7187C44.6055 72.9344 31.8389 56.8657 31.8389 56.8657C31.8389 56.8657 28.8286 47.6222 31.0481 44.843C33.268 42.0555 21.7096 41.7028 16.8441 53.1072C14.2654 59.1516 10.0743 68.1671 7.46368 76.5541C5.13715 83.9842 4.05679 90.9243 6.42307 94.875C10.0397 100.91 19.0978 108.82 23.7419 117.684Z" fill="#575A89"/>
<path id="Vector_7" opacity="0.1" d="M6.42307 94.8751C10.0397 100.91 19.0978 108.82 23.7419 117.684C24.9206 113.669 26.3625 109.512 26.3625 109.512C26.3625 109.512 31.828 81.6218 15.175 74.5119C12.4208 74.28 9.6715 75.0082 7.46368 76.5541C5.13715 83.9843 4.05679 90.9243 6.42307 94.8751Z" fill="black"/>
<path id="Vector_8" d="M72.3668 92.7615L86.4724 96.4929L106.033 97.0899L108.13 112.833L76.0023 115.153C76.0023 115.153 67.8613 94.2745 72.3668 92.7615Z" fill="#575A89"/>
<path id="Vector_9" d="M49.6866 145.856C49.6866 145.856 68.5453 148.652 64.2731 153.932C60.0009 159.212 43.2783 153.776 43.2783 153.776L49.6866 145.856Z" fill="#FFB9B9"/>
<path id="Vector_10" opacity="0.1" d="M26.5347 128.992C26.1502 136.622 23.1672 145.46 22.1146 151.881C28.1459 157.115 33.8792 161.73 36.0308 161.796C40.4764 161.931 47.6192 161.324 50.2565 162.23C52.8938 163.136 54.3529 147.501 54.3529 147.501C54.3529 147.501 52.7547 142.501 45.7319 139.811C40.9916 137.991 31.8972 133.035 26.5347 128.992Z" fill="black"/>
<path id="Vector_11" d="M15.355 69.5661C15.355 69.5661 0.300219 67.4562 1.23843 90.5908C2.17664 113.725 -0.141576 128.508 5.93215 132.82C12.0059 137.131 31.7653 156.714 36.2108 156.85C40.6563 156.986 47.7992 156.378 50.4365 157.284C53.0738 158.19 54.5329 142.555 54.5329 142.555C54.5329 142.555 52.9347 137.555 45.9118 134.865C38.889 132.175 22.326 122.592 22.446 119.295C22.566 115.998 26.5425 104.566 26.5425 104.566C26.5425 104.566 32.008 76.676 15.355 69.5661Z" fill="#575A89"/>
<path id="Vector_12" d="M52.2776 54.175C63.0865 54.1164 71.8047 45.9455 71.7504 35.9248C71.696 25.9041 62.8896 17.8283 52.0808 17.8869C41.2719 17.9456 32.5537 26.1165 32.608 36.1372C32.6624 46.1578 41.4688 54.2337 52.2776 54.175Z" fill="#FFB9B9"/>
<path id="Vector_13" d="M65.2156 9.9538C65.6897 10.3283 66.2564 10.5882 66.8653 10.7104C67.4819 10.776 68.2017 10.4043 68.2214 9.82917C68.6738 10.6876 69.184 11.6024 70.1006 12.0392C71.0172 12.476 72.4289 12.0979 72.5555 11.1493C72.6929 11.8683 73.04 12.5385 73.5592 13.0874C74.1291 13.5857 75.1584 13.7067 75.6506 13.1408C75.2612 15.1714 75.5196 17.2561 75.4051 19.3155C75.2905 21.375 74.7102 23.5608 73.0397 24.9237C70.6036 26.9113 66.9214 26.444 63.7008 26.0874C63.2135 25.9954 62.7086 26.0237 62.2367 26.1696C61.0341 26.6522 61.0972 28.2072 61.0876 29.4217C61.0537 33.6749 57.1818 37.6103 52.6161 38.0319C51.3447 38.1493 49.9662 37.9921 48.9875 37.2315C48.0697 36.5184 47.5966 35.3505 46.5465 34.8167C44.8383 33.9484 42.7794 35.2394 41.5415 36.6357C40.3037 38.0319 39.0855 39.7478 37.1576 40.0126C34.6079 40.3629 32.6514 37.9627 31.6858 35.748C30.3535 32.6439 29.7052 29.3234 29.7793 25.9823C29.8533 22.6412 30.6482 19.3471 32.117 16.2942C37.3863 5.4984 55.577 3.69666 65.2156 9.9538Z" fill="#2F2E41"/>
<path id="Vector_14" d="M101.122 64.3061L450.309 8.4106L451.174 167.837L101.75 180.019L101.122 64.3061Z" fill="#6C63FF"/>
</g>
<g id="tick">
<path id="Vector_15" d="M170.746 116.069C170.648 97.9529 161.792 84.4299 151.166 85.8378C140.754 87.2174 132.544 102.469 132.638 119.929C132.733 137.389 141.1 150.961 151.516 150.231C162.145 149.486 170.845 134.185 170.746 116.069Z" fill="white"/>
<path id="Vector_16" d="M134.489 117.481L142.194 116.339L149.943 123.446L158.757 108L168.248 107.949L149.976 129.495L134.489 117.481Z" fill="#6C63FF"/>
<path id="Vector_17" opacity="0.2" d="M134.489 117.481L142.194 116.339L149.943 123.446L158.757 108L168.248 107.949L149.976 129.495L134.489 117.481Z" fill="black"/>
</g>
<path id="bottom" d="M406.503 110.079L197.627 132.694L197.562 120.664L406.425 95.7188L406.503 110.079Z" fill="url(#paint0_linear)"/>
<path id="top" d="M406.336 79.2218L197.459 101.837L197.394 89.8074L406.258 64.8622L406.336 79.2218Z" fill="url(#paint1_linear)"/>
</g>
<defs>
<linearGradient id="paint0_linear" x1="79908" y1="8168.71" x2="164782" y2="7708.25" gradientUnits="userSpaceOnUse">
<stop stop-color="#DADADA"/>
<stop offset="1" stop-color="white"/>
</linearGradient>
<linearGradient id="paint1_linear" x1="197.362" y1="83.9168" x2="406.355" y2="82.783" gradientUnits="userSpaceOnUse">
<stop stop-color="#DADADA"/>
<stop offset="1" stop-color="white"/>
</linearGradient>
</defs>
</svg>
